<?xml version="1.0" standalone="no"?>
<!DOCTYPE svg PUBLIC "-//W3C//DTD SVG 20010904//EN"
 "http://www.w3.org/TR/2001/REC-SVG-20010904/DTD/svg10.dtd">
<svg version="1.0" xmlns="http://www.w3.org/2000/svg"
 width="510.000000pt" height="510.000000pt" viewBox="0 0 510.000000 510.000000"
 preserveAspectRatio="xMidYMid meet">
<metadata>
Created by potrace 1.14, written by Peter Selinger 2001-2017
</metadata>
<g transform="translate(0.000000,510.000000) scale(0.100000,-0.100000)"
fill="#000000" stroke="none">
<path d="M2385 4895 c-33 -35 -64 -60 -70 -57 -5 3 -7 1 -2 -3 10 -11 -53 -76
-66 -68 -6 3 -7 1 -3 -5 6 -11 -31 -38 -46 -34 -5 1 -7 -2 -5 -7 4 -14 -43
-72 -54 -66 -5 4 -8 3 -7 -2 5 -15 -260 -275 -273 -267 -7 4 -9 3 -5 -4 9 -15
-220 -246 -235 -236 -8 5 -9 3 -4 -6 9 -14 -122 -143 -136 -134 -5 3 -7 -1 -4
-8 7 -16 -80 -102 -94 -93 -6 3 -8 0 -5 -9 3 -9 -6 -21 -25 -32 -17 -10 -31
-21 -31 -25 0 -4 -20 -28 -44 -54 -29 -32 -48 -45 -56 -40 -9 5 -11 4 -6 -4 5
-7 -3 -23 -18 -38 -14 -14 -26 -22 -26 -18 0 4 -10 -5 -22 -21 -46 -60 -157
-166 -168 -159 -6 3 -9 1 -8 -7 2 -7 -3 -12 -10 -10 -8 1 -10 -2 -7 -8 9 -15
-203 -223 -217 -214 -7 4 -8 2 -4 -5 10 -15 -13 -43 -27 -34 -5 3 -7 2 -4 -4
8 -13 -92 -105 -106 -96 -6 3 -7 1 -3 -6 10 -15 -279 -306 -294 -296 -6 3 -10
3 -9 -2 3 -20 -2 -34 -11 -28 -5 3 -7 0 -5 -8 3 -7 -5 -25 -17 -39 -13 -14
-33 -43 -45 -64 -12 -22 -27 -38 -33 -36 -6 1 -9 -2 -5 -8 3 -5 -2 -22 -12
-38 -10 -15 -32 -55 -48 -89 -16 -35 -33 -63 -38 -63 -5 0 -6 -7 -3 -16 4 -9
1 -23 -6 -32 -7 -8 -12 -17 -10 -19 7 -10 0 -32 -10 -29 -7 1 -10 1 -5 -1 9
-6 9 -37 0 -47 -5 -4 -8 -11 -9 -14 -3 -36 -17 -91 -23 -88 -3 2 -8 -95 -9
-217 -3 -191 0 -235 17 -317 11 -52 27 -111 35 -131 12 -28 12 -39 3 -49 -9
-10 -9 -11 0 -6 14 7 20 -1 26 -35 8 -42 12 -54 18 -59 9 -8 79 -140 74 -140
-2 0 7 -12 20 -26 14 -15 22 -30 19 -35 -3 -5 0 -9 6 -9 7 0 9 -7 6 -16 -4
-10 -2 -13 6 -8 8 5 9 2 5 -9 -3 -9 -3 -16 1 -16 20 3 30 -3 42 -28 7 -16 12
-32 11 -38 -2 -5 1 -7 5 -3 11 11 34 -12 34 -33 0 -11 6 -19 14 -19 8 0 26
-14 39 -30 14 -17 30 -30 35 -30 4 0 32 -23 61 -50 29 -28 57 -50 62 -50 5 0
9 -5 9 -11 0 -5 5 -7 10 -4 6 3 10 1 10 -4 0 -6 3 -10 8 -9 15 5 92 -46 93
-61 0 -10 3 -11 5 -4 7 15 34 5 34 -12 0 -7 8 -19 18 -26 15 -13 16 -12 3 4
-7 9 -12 17 -10 17 12 0 164 -70 162 -75 -7 -13 -2 -19 6 -6 6 9 18 11 40 6
17 -4 29 -10 27 -13 -2 -4 10 -7 28 -8 17 0 46 -8 64 -16 18 -9 30 -12 27 -7
-4 5 -1 9 4 9 6 0 11 -4 11 -9 0 -4 10 -8 23 -8 68 1 118 -4 114 -11 -3 -4 17
-5 44 -4 44 4 49 2 43 -15 -5 -17 -5 -17 6 0 11 17 46 25 35 8 -3 -5 -1 -13 5
-16 6 -4 9 -1 8 5 -2 7 5 14 14 15 10 2 36 6 58 10 30 5 40 3 40 -7 0 -9 3 -9
8 -2 10 16 57 30 47 14 -4 -7 4 -4 18 5 30 19 47 13 42 -15 -2 -12 0 -18 5
-15 5 3 7 14 5 25 -3 16 5 22 38 30 23 6 50 14 61 17 13 4 17 1 12 -8 -4 -8
-1 -6 7 3 8 10 23 18 35 18 11 0 41 9 66 19 32 14 46 16 50 8 3 -8 5 -6 5 3 1
8 28 29 60 46 45 23 64 28 78 21 10 -6 15 -6 11 -2 -12 13 12 47 28 41 9 -3
12 -1 9 4 -3 6 5 14 18 19 14 6 28 15 32 21 4 6 16 8 27 4 14 -4 18 -3 13 5
-11 18 13 40 37 33 13 -3 19 -1 15 5 -4 6 0 13 8 17 8 3 15 11 15 18 0 17 57
71 68 64 4 -2 14 0 22 6 12 8 12 9 -2 4 -10 -3 -18 -1 -18 4 0 6 4 10 8 10 15
0 53 41 47 51 -4 5 -1 9 4 9 6 0 11 9 11 20 0 11 4 20 8 20 4 0 14 16 21 35 7
19 17 35 22 35 6 0 7 5 3 12 -5 7 -2 9 8 6 8 -4 15 0 15 8 0 7 -5 10 -10 7 -7
-4 -8 1 -3 13 4 10 15 47 23 82 9 34 20 62 24 62 5 0 9 5 9 11 0 5 -4 8 -9 4
-6 -3 -9 4 -8 15 1 11 8 20 17 20 9 0 11 3 4 8 -12 8 -14 383 -1 375 4 -2 7 1
7 6 0 6 -5 11 -12 11 -9 0 -9 3 0 12 7 7 12 17 12 22 0 6 -5 4 -10 -4 -8 -13
-10 -12 -10 3 0 9 6 17 13 17 8 0 8 3 2 8 -6 4 -11 43 -11 90 0 45 3 77 8 70
5 -9 8 -8 8 5 0 9 -5 17 -10 17 -6 0 -3 11 6 25 14 21 14 26 2 30 -12 5 -15
30 -15 120 0 63 3 115 8 115 4 0 6 -11 5 -25 -2 -13 1 -22 5 -19 11 6 6 44 -7
52 -16 11 -18 176 -3 166 9 -5 9 -3 3 7 -5 8 -10 32 -10 54 -1 22 -3 70 -4
107 -3 79 -10 94 -36 80 -11 -6 -73 -65 -138 -131 -102 -102 -122 -119 -135
-108 -14 10 -14 10 -3 -4 10 -13 10 -18 -1 -28 -8 -6 -17 -8 -21 -4 -4 4 -4
-1 0 -11 6 -15 3 -17 -17 -12 -13 3 -18 3 -11 0 15 -7 -94 -124 -115 -124 -7
0 -12 -6 -11 -12 2 -7 -2 -12 -9 -11 -7 2 -10 -4 -7 -12 6 -14 -6 -20 -29 -16
-5 1 -6 -2 -3 -7 2 -4 -24 -36 -58 -70 -35 -34 -61 -62 -58 -62 2 0 -1 -6 -7
-13 -7 -9 -11 -88 -11 -236 -1 -122 -5 -219 -9 -217 -4 3 -8 -1 -8 -9 0 -8 4
-12 9 -9 4 3 8 -5 7 -18 -1 -27 -30 -81 -44 -81 -6 0 -16 -8 -23 -19 -7 -10
-18 -16 -23 -12 -5 3 -8 1 -7 -5 8 -27 -150 -140 -174 -125 -7 4 -8 3 -4 -4 4
-7 1 -13 -8 -13 -20 -2 -26 -4 -51 -15 -32 -14 -264 -8 -307 7 -20 8 -37 19
-37 24 1 6 5 9 11 7 5 -1 6 2 3 8 -5 8 -12 6 -24 -4 -15 -14 -19 -13 -44 3
-15 9 -24 21 -20 25 4 4 1 5 -7 1 -19 -7 -92 53 -83 68 3 7 2 9 -2 4 -9 -7
-75 50 -75 65 0 4 -11 19 -26 33 -14 14 -22 30 -19 35 3 6 2 10 -3 10 -10 0
-38 60 -34 73 1 4 -3 7 -10 7 -6 0 -3 7 8 15 16 13 16 14 2 9 -14 -5 -18 0
-19 17 -1 13 -3 40 -5 59 -14 121 -14 121 6 115 10 -3 21 -2 24 3 3 6 -2 9
-11 8 -20 -1 -22 21 -10 92 5 30 11 41 20 36 9 -6 8 -3 -1 8 -9 11 -10 18 -2
23 5 3 10 15 10 27 0 12 8 22 21 25 13 4 16 8 9 13 -7 4 5 27 35 65 25 32 45
56 45 53 0 -3 192 186 426 421 234 234 430 425 435 423 5 -1 8 2 7 6 -4 13
305 321 316 315 5 -4 7 -2 3 3 -3 5 73 88 170 184 156 156 219 230 196 230 -5
0 -1 5 7 10 8 5 10 10 4 10 -18 0 -14 172 4 186 12 9 13 13 2 19 -9 5 -11 4
-6 -3 4 -7 2 -12 -3 -12 -6 0 -11 9 -11 20 0 14 5 18 18 14 16 -5 16 -5 0 9
-27 21 -22 32 6 14 21 -14 26 -14 36 -2 13 15 4 39 -11 30 -5 -4 -9 3 -9 15 0
12 4 18 10 15 5 -3 16 11 25 31 21 50 18 58 -4 11 -10 -21 -22 -38 -27 -38 -5
1 -9 -9 -9 -21 0 -13 5 -22 13 -20 13 2 16 -10 6 -21 -10 -9 -54 23 -54 40 0
8 10 24 23 36 13 12 15 16 5 8 -25 -19 -36 -5 -12 15 13 11 14 14 3 11 -13 -4
-15 6 -15 69 1 48 5 75 13 78 7 3 10 14 8 25 -3 14 2 19 16 18 21 -1 25 -12 9
-20 -6 -3 -5 -4 2 -3 24 5 14 31 -12 31 -20 0 -25 -5 -24 -22 1 -13 -2 -23 -7
-23 -4 0 -7 31 -6 69 2 68 6 75 37 57 12 -7 13 -7 2 5 -7 8 -18 14 -25 14 -7
0 -13 17 -15 37 -3 33 -1 37 19 33 12 -2 18 -1 15 3 -4 4 -13 7 -19 7 -8 0
-13 35 -14 115 -3 135 -9 180 -26 179 -7 0 -39 -29 -72 -64z m109 -2790 c-4
-8 -8 -15 -10 -15 -2 0 -4 7 -4 15 0 8 4 15 10 15 5 0 7 -7 4 -15z"/>
<path d="M2625 4939 c-4 -11 -7 -75 -7 -142 0 -77 -4 -127 -11 -136 -9 -11 -9
-13 0 -8 15 10 15 -52 -1 -72 -8 -10 -8 -13 0 -8 7 4 11 -7 11 -33 0 -22 -3
-37 -7 -35 -3 2 -12 -1 -20 -6 -12 -8 -11 -9 5 -7 30 5 32 -59 2 -73 -21 -9
-21 -9 -1 -6 19 4 20 0 20 -100 -1 -99 -2 -105 -26 -123 -21 -16 -23 -21 -11
-32 12 -11 13 -10 8 4 -5 13 10 28 27 28 1 0 3 -38 3 -85 0 -46 -3 -83 -6 -80
-4 2 -13 -1 -21 -6 -12 -8 -11 -9 5 -7 15 2 19 -3 21 -30 1 -20 -5 -37 -15
-43 -14 -9 -14 -10 2 -5 11 3 17 1 16 -7 -4 -35 6 -53 62 -107 33 -33 58 -64
54 -69 -3 -7 0 -8 10 -5 13 5 15 1 10 -24 -3 -17 -1 -33 4 -36 4 -3 7 6 5 20
-2 25 -2 25 18 7 61 -54 83 -77 81 -85 -2 -4 1 -7 6 -5 11 3 81 -68 81 -82 0
-5 9 -12 19 -16 13 -4 18 -12 14 -22 -4 -11 -3 -14 5 -9 7 4 15 1 18 -8 3 -9
11 -16 16 -16 12 0 83 -70 115 -113 13 -17 23 -28 23 -24 0 4 9 -1 19 -10 11
-9 18 -20 15 -25 -3 -5 -1 -7 4 -6 12 4 208 -194 204 -205 -1 -5 1 -6 6 -3 10
6 93 -80 85 -88 -4 -3 -1 -6 5 -6 18 0 92 -72 85 -83 -3 -6 -1 -7 5 -3 13 8
55 -48 44 -59 -4 -5 -2 -5 5 -2 15 9 45 -21 36 -36 -3 -7 -3 -9 1 -5 10 9 17
3 134 -111 53 -52 96 -98 94 -102 -1 -5 2 -8 6 -7 16 5 125 -110 117 -123 -5
-7 -4 -10 3 -5 9 6 40 -33 33 -42 -2 -2 0 -6 3 -9 3 -3 3 5 1 18 -4 18 8 10
51 -36 30 -33 67 -72 81 -87 14 -15 23 -34 20 -42 -4 -10 -1 -13 9 -9 10 4 17
-2 21 -16 3 -11 10 -21 17 -21 6 0 4 -5 -4 -10 -13 -8 -12 -10 3 -10 10 0 16
-4 13 -9 -4 -5 -1 -11 5 -13 7 -2 12 -18 13 -36 0 -18 5 -32 10 -32 4 0 6 -11
4 -25 -3 -14 -2 -25 2 -25 9 0 7 -51 -3 -67 -6 -9 -3 -11 7 -7 13 5 16 -2 16
-35 0 -23 -3 -41 -7 -41 -5 0 -9 -25 -9 -55 -1 -31 -8 -63 -15 -72 -10 -12
-10 -15 -1 -9 8 5 7 -4 -4 -28 -10 -19 -22 -32 -27 -29 -6 4 -8 0 -4 -10 3
-10 2 -17 -4 -17 -6 0 -8 -4 -5 -9 6 -9 -61 -109 -68 -101 -2 3 -14 -8 -26
-23 -19 -24 -24 -26 -39 -15 -14 12 -15 11 -2 -4 12 -17 9 -23 -12 -19 -5 1
-6 -3 -3 -8 7 -10 -43 -46 -51 -37 -4 3 -13 -3 -20 -14 -8 -11 -19 -18 -24
-15 -5 4 -9 1 -9 -5 0 -6 -4 -9 -9 -5 -5 3 -13 1 -16 -5 -5 -8 -11 -7 -21 1
-12 10 -13 9 -8 -4 4 -12 -5 -17 -43 -24 -74 -12 -262 -8 -288 6 -5 3 -17 7
-26 8 -36 6 -137 67 -177 109 -24 24 -48 44 -53 44 -5 0 -9 8 -9 17 0 9 -3 14
-6 10 -11 -10 -47 31 -39 44 5 8 4 10 -3 5 -17 -11 -16 205 1 223 7 9 8 12 0
7 -8 -4 -11 31 -12 135 0 137 -1 142 -26 166 -13 14 -22 29 -19 34 3 5 0 9 -5
9 -18 0 -141 122 -134 133 3 5 2 7 -4 4 -14 -9 -86 70 -77 84 4 7 3 9 -3 6
-13 -8 -105 72 -97 85 3 4 1 7 -4 6 -6 -2 -69 57 -141 130 -73 72 -136 132
-141 132 -13 0 -20 -29 -21 -95 -1 -33 -6 -66 -13 -74 -8 -11 -8 -13 1 -8 15
9 15 -113 -1 -132 -8 -11 -8 -13 2 -7 20 12 15 -64 -5 -80 -15 -12 -16 -13 -2
-8 15 5 17 -3 15 -60 -1 -58 -4 -66 -24 -76 -13 -5 -21 -14 -18 -19 3 -5 -1
-12 -10 -15 -8 -3 -12 -10 -9 -16 6 -10 -7 -14 -32 -11 -6 1 -14 -3 -18 -9 -3
-5 0 -7 8 -4 8 3 18 1 22 -5 3 -7 -2 -11 -14 -11 -11 0 -22 -4 -25 -9 -4 -5 5
-6 19 -3 13 4 25 12 26 17 0 6 7 14 15 18 8 5 12 12 9 17 -3 4 2 11 11 14 9 3
12 11 8 18 -5 8 -2 9 10 5 10 -4 15 -3 11 3 -3 6 -2 10 3 10 5 0 9 -18 9 -41
0 -26 -3 -36 -8 -27 -6 9 -9 9 -9 1 0 -6 4 -14 9 -17 4 -3 8 -33 9 -66 0 -33
-3 -58 -7 -56 -4 3 -13 0 -21 -6 -12 -8 -12 -9 2 -4 10 3 20 1 23 -4 4 -6 0
-10 -7 -10 -9 0 -9 -3 -2 -8 13 -8 14 -92 1 -92 -5 0 -7 9 -4 21 3 12 3 18 0
15 -4 -3 -12 -1 -20 5 -9 9 -13 8 -13 0 0 -6 5 -11 10 -11 6 0 10 -7 10 -15 0
-9 6 -18 14 -21 10 -4 13 -31 12 -117 -1 -109 -1 -112 -25 -123 -22 -9 -23
-11 -8 -17 11 -4 16 -3 12 3 -3 6 0 10 8 10 12 0 15 -19 14 -104 -1 -70 -4
-103 -11 -100 -6 3 -3 -1 7 -9 10 -9 17 -26 16 -43 -1 -16 3 -48 9 -72 9 -39
8 -43 -6 -37 -11 4 -9 -1 6 -15 13 -12 21 -28 18 -36 -3 -8 0 -14 7 -14 8 0 6
-4 -3 -10 -10 -6 -11 -10 -3 -10 7 0 20 -14 29 -31 11 -23 12 -29 2 -24 -7 4
-4 -2 8 -12 19 -16 38 -51 34 -62 -1 -2 4 -8 12 -12 10 -7 10 -9 1 -9 -7 0
-13 -5 -13 -11 0 -5 5 -7 10 -4 6 3 10 -4 10 -17 0 -18 2 -20 10 -8 9 14 14 7
11 -13 -1 -5 3 -6 9 -2 12 8 71 -45 64 -57 -3 -4 4 -8 14 -8 13 0 22 -9 26
-24 3 -14 17 -28 33 -34 16 -5 43 -25 62 -43 19 -19 31 -28 26 -20 -9 15 0 12
45 -20 39 -26 212 -119 223 -119 5 0 16 -8 24 -17 8 -10 11 -12 7 -4 -6 11 -3
13 12 7 24 -10 44 -14 67 -15 10 -1 15 -5 12 -11 -3 -5 0 -7 9 -4 8 3 31 1 50
-6 20 -6 52 -14 72 -16 20 -2 42 -8 47 -11 6 -4 30 -6 54 -6 24 1 43 -2 43 -6
0 -5 11 -6 25 -3 21 4 24 1 19 -14 -5 -18 -5 -18 6 -1 11 17 46 25 35 8 -3 -5
-1 -13 5 -16 6 -4 9 -1 8 5 -3 14 11 17 107 25 39 2 80 8 93 11 15 4 22 2 22
-7 0 -8 5 -5 14 6 12 17 16 18 32 5 10 -8 15 -10 11 -3 -7 11 43 30 128 48 17
4 38 9 47 12 13 3 16 0 12 -10 -3 -8 0 -18 7 -23 7 -4 10 -3 6 4 -12 18 4 44
24 39 11 -3 17 -1 13 4 -5 8 9 13 29 10 4 0 7 3 7 8 0 5 27 23 60 40 33 17 60
29 60 27 0 -3 12 6 26 19 14 13 42 29 62 36 20 6 57 33 82 58 52 51 101 87
113 83 5 -1 6 2 2 8 -3 5 13 29 35 52 23 24 48 55 56 71 8 15 19 27 24 27 6 0
10 6 10 14 0 8 10 22 22 31 13 8 22 18 21 20 -8 14 -1 18 8 5 9 -12 10 -12 5
3 -7 21 17 61 29 49 4 -4 6 0 2 10 -3 9 1 24 9 35 9 10 13 13 10 6 -4 -6 -2
-14 3 -18 6 -3 8 4 6 16 -3 13 1 29 7 37 7 8 13 19 14 26 1 7 11 31 22 54 11
23 16 39 10 36 -6 -4 -6 1 1 12 14 27 24 58 23 67 -1 4 3 7 9 7 5 0 8 4 5 8
-2 4 3 38 13 75 10 36 16 69 13 72 -3 3 -1 5 5 5 19 0 9 461 -10 534 -9 33
-14 63 -11 67 2 4 -1 9 -7 11 -7 2 -13 20 -13 40 -1 20 -4 34 -8 31 -5 -2 -8
1 -8 6 0 6 0 13 0 16 0 3 -11 30 -25 60 -13 31 -22 63 -19 73 5 13 4 14 -4 4
-7 -11 -10 -10 -16 3 -3 9 -3 22 1 27 3 7 1 8 -5 4 -7 -4 -12 -1 -12 6 -1 7
-14 29 -30 48 -17 19 -30 40 -30 46 0 7 -4 14 -8 16 -14 6 -73 100 -75 119 -1
10 -4 16 -8 13 -4 -2 -15 3 -23 12 -9 8 -16 12 -16 8 0 -4 -10 6 -22 22 -13
16 -22 32 -20 36 1 5 -2 7 -6 6 -13 -4 -152 134 -146 144 3 5 1 7 -4 6 -12 -4
-88 73 -84 86 2 6 0 8 -4 3 -10 -9 -85 63 -78 75 3 5 1 7 -4 6 -13 -4 -152
134 -146 144 3 5 2 7 -3 6 -12 -4 -96 79 -86 84 4 3 3 4 -4 2 -15 -4 -45 30
-36 41 5 4 3 5 -3 2 -11 -7 -121 102 -116 116 1 5 -1 6 -6 3 -12 -7 -84 68
-75 79 5 4 3 5 -3 2 -12 -7 -57 35 -49 46 3 4 2 5 -1 2 -9 -6 -110 96 -106
107 1 5 -1 7 -6 4 -12 -7 -64 48 -55 58 5 4 3 6 -2 4 -14 -4 -96 72 -89 83 3
5 0 9 -6 9 -16 0 -86 71 -82 82 1 5 -2 7 -6 4 -12 -7 -44 28 -35 39 5 4 3 5
-3 2 -11 -7 -121 102 -116 116 1 5 -1 6 -6 3 -12 -7 -84 68 -75 78 5 4 3 6 -3
4 -14 -4 -154 133 -148 144 3 5 1 7 -4 6 -11 -4 -88 73 -84 84 1 5 -1 7 -6 4
-12 -7 -134 119 -124 129 4 5 2 5 -4 2 -6 -3 -66 50 -133 119 -68 68 -127 124
-131 124 -5 0 -12 -9 -15 -21z"/>
<path d="M2540 4746 c0 -2 8 -10 18 -17 15 -13 16 -12 3 4 -13 16 -21 21 -21
13z"/>
<path d="M2553 4693 c0 -9 4 -10 14 -2 7 6 13 12 13 14 0 1 -6 2 -13 2 -8 0
-14 -6 -14 -14z"/>
<path d="M2562 4616 c7 -8 15 -12 17 -11 5 6 -10 25 -20 25 -5 0 -4 -6 3 -14z"/>
<path d="M2515 4611 c-3 -5 0 -13 6 -17 8 -5 9 -3 4 6 -6 10 -4 12 9 7 10 -4
15 -3 11 3 -8 13 -22 13 -30 1z"/>
<path d="M2593 4605 c0 -8 4 -12 9 -9 5 3 6 10 3 15 -9 13 -12 11 -12 -6z"/>
<path d="M2550 4576 c7 -7 13 -7 20 0 6 6 3 10 -10 10 -13 0 -16 -4 -10 -10z"/>
<path d="M2579 4568 c-11 -40 1 -73 17 -47 4 8 3 9 -4 5 -7 -4 -12 -3 -12 3 0
5 6 12 13 14 9 4 9 6 -1 6 -7 1 -10 6 -7 11 3 6 4 10 1 10 -3 0 -6 -1 -7 -2z"/>
<path d="M2540 4551 c0 -6 4 -13 10 -16 6 -3 7 1 4 9 -7 18 -14 21 -14 7z"/>
<path d="M2490 4526 c0 -3 9 -10 20 -16 11 -6 20 -8 20 -6 0 3 -9 10 -20 16
-11 6 -20 8 -20 6z"/>
<path d="M2540 4513 c13 -28 27 -37 27 -18 0 8 -3 13 -5 10 -3 -3 -11 3 -19
13 -13 15 -13 15 -3 -5z"/>
<path d="M2570 4453 c6 -14 16 -20 25 -17 18 7 20 17 3 11 -7 -2 -19 3 -26 12
-11 14 -12 13 -2 -6z"/>
<path d="M2554 4426 c3 -16 8 -31 11 -35 3 -3 4 7 1 23 -3 16 -8 31 -11 35 -3
3 -4 -7 -1 -23z"/>
<path d="M2518 4423 c7 -3 16 -2 19 1 4 3 -2 6 -13 5 -11 0 -14 -3 -6 -6z"/>
<path d="M2510 4401 c8 -5 18 -7 22 -5 4 3 8 1 8 -5 0 -5 -5 -12 -10 -14 -6
-3 -5 -4 2 -3 23 5 14 29 -12 33 -18 2 -21 1 -10 -6z"/>
<path d="M2496 4375 c-5 -14 30 -42 41 -32 2 3 -5 8 -16 12 -12 4 -18 12 -14
21 3 7 3 14 0 14 -3 0 -7 -7 -11 -15z"/>
<path d="M2580 4380 c0 -5 5 -10 10 -10 6 0 10 5 10 10 0 6 -4 10 -10 10 -5 0
-10 -4 -10 -10z"/>
<path d="M2550 4360 c0 -5 5 -10 10 -10 6 0 10 5 10 10 0 6 -4 10 -10 10 -5 0
-10 -4 -10 -10z"/>
<path d="M2574 4339 c-3 -6 -1 -16 6 -22 10 -9 12 -8 7 5 -4 11 0 18 11 21 16
4 16 5 0 6 -9 0 -20 -4 -24 -10z"/>
<path d="M2514 4314 c-18 -15 -18 -15 4 -4 13 6 22 7 22 1 0 -5 -6 -12 -12
-14 -10 -4 -10 -6 -1 -6 16 -1 27 19 16 30 -5 5 -17 3 -29 -7z"/>
<path d="M2588 4295 c-20 -27 -23 -51 -8 -60 6 -4 8 -11 5 -16 -4 -5 -1 -9 5
-9 7 0 10 6 7 14 -3 7 -1 18 5 24 8 8 8 15 0 25 -9 10 -9 16 0 25 6 6 10 14 7
16 -2 2 -12 -6 -21 -19z m4 -47 c-9 -9 -12 -7 -12 12 0 19 3 21 12 12 9 -9 9
-15 0 -24z"/>
<path d="M2550 4223 c0 -5 5 -15 10 -23 7 -12 9 -10 7 8 -1 19 -17 33 -17 15z"/>
<path d="M2554 4158 c6 -19 -17 -82 -26 -73 -3 3 -13 -6 -22 -19 -16 -26 -11
-36 16 -33 18 3 54 37 38 37 -6 0 -13 -6 -16 -13 -2 -7 -13 -13 -24 -14 -16
-1 -18 1 -8 17 7 10 15 17 20 14 4 -3 14 12 23 32 11 26 12 40 4 53 -10 14
-10 14 -5 -1z"/>
<path d="M2601 4144 c0 -11 3 -14 6 -6 3 7 2 16 -1 19 -3 4 -6 -2 -5 -13z"/>
<path d="M2520 4140 c0 -5 5 -10 10 -10 6 0 10 5 10 10 0 6 -4 10 -10 10 -5 0
-10 -4 -10 -10z"/>
<path d="M2574 4115 c-8 -20 3 -48 16 -40 5 3 10 2 10 -4 0 -5 -5 -12 -10 -14
-6 -3 -5 -4 2 -3 7 2 13 9 13 17 0 8 -6 13 -12 12 -7 -2 -13 7 -13 18 0 19 2
20 18 8 15 -13 16 -12 3 4 -16 21 -20 21 -27 2z"/>
<path d="M2506 4105 c-11 -8 -15 -15 -9 -15 6 0 16 7 23 15 16 19 11 19 -14 0z"/>
<path d="M2546 4018 l-18 -33 21 25 c18 22 26 40 18 40 -1 0 -11 -15 -21 -32z"/>
<path d="M2494 3999 c-4 -7 -3 -9 4 -5 6 3 13 -2 15 -11 4 -16 5 -16 6 -1 1
21 -15 32 -25 17z"/>
<path d="M2559 4003 c-6 -32 -5 -53 1 -53 4 0 7 14 7 30 0 27 -5 41 -8 23z"/>
<path d="M2580 3980 c0 -5 5 -10 10 -10 6 0 10 5 10 10 0 6 -4 10 -10 10 -5 0
-10 -4 -10 -10z"/>
<path d="M2502 3957 c10 -8 16 -16 13 -19 -3 -2 2 -5 10 -5 24 0 18 13 -12 26
-24 10 -26 9 -11 -2z"/>
<path d="M2496 3893 c-6 -14 -5 -15 5 -6 7 7 10 15 7 18 -3 3 -9 -2 -12 -12z"/>
<path d="M2573 3895 c0 -8 4 -12 9 -9 5 3 6 10 3 15 -9 13 -12 11 -12 -6z"/>
<path d="M2600 3891 c0 -6 4 -13 10 -16 6 -3 7 1 4 9 -7 18 -14 21 -14 7z"/>
<path d="M2477 3851 c-10 -14 -10 -14 4 -4 9 7 18 10 21 7 3 -3 8 -1 12 4 9
16 -24 9 -37 -7z"/>
<path d="M2573 3853 c0 -9 4 -10 14 -2 7 6 13 12 13 14 0 1 -6 2 -13 2 -8 0
-14 -6 -14 -14z"/>
<path d="M2456 3813 c-6 -14 -5 -15 5 -6 7 7 10 15 7 18 -3 3 -9 -2 -12 -12z"/>
<path d="M2436 3778 c3 -5 10 -6 15 -3 13 9 11 12 -6 12 -8 0 -12 -4 -9 -9z"/>
<path d="M2476 3782 c-3 -5 1 -9 9 -9 8 0 12 4 9 9 -3 4 -7 8 -9 8 -2 0 -6 -4
-9 -8z"/>
<path d="M2690 3780 c0 -5 5 -10 11 -10 5 0 7 5 4 10 -3 6 -8 10 -11 10 -2 0
-4 -4 -4 -10z"/>
<path d="M2433 3747 c0 -8 6 -14 14 -14 9 0 10 4 2 14 -6 7 -12 13 -14 13 -1
0 -2 -6 -2 -13z"/>
<path d="M2353 3715 c0 -8 4 -12 9 -9 5 3 6 10 3 15 -9 13 -12 11 -12 -6z"/>
<path d="M2593 3715 c0 -8 4 -12 9 -9 5 3 6 10 3 15 -9 13 -12 11 -12 -6z"/>
<path d="M1115 3709 c-4 -6 -5 -12 -2 -15 2 -3 7 2 10 11 7 17 1 20 -8 4z"/>
<path d="M2633 3705 c0 -8 4 -12 9 -9 5 3 6 10 3 15 -9 13 -12 11 -12 -6z"/>
<path d="M2706 3682 c-3 -5 1 -9 9 -9 8 0 12 4 9 9 -3 4 -7 8 -9 8 -2 0 -6 -4
-9 -8z"/>
<path d="M2285 3659 c-3 -4 2 -6 10 -5 21 3 28 13 10 13 -9 0 -18 -4 -20 -8z"/>
<path d="M2274 3633 c16 -20 36 -23 36 -6 0 4 -3 3 -7 0 -3 -4 -16 1 -27 10
-21 18 -21 18 -2 -4z"/>
<path d="M2833 3635 c0 -8 4 -12 9 -9 5 3 6 10 3 15 -9 13 -12 11 -12 -6z"/>
<path d="M2250 3621 c0 -6 4 -13 10 -16 6 -3 7 1 4 9 -7 18 -14 21 -14 7z"/>
<path d="M2875 3591 c-3 -5 -2 -12 3 -15 5 -3 9 1 9 9 0 17 -3 19 -12 6z"/>
<path d="M2203 3578 c-10 -17 -12 -59 -2 -53 4 3 6 13 4 23 -1 9 2 23 8 30 5
6 7 12 4 12 -3 0 -9 -6 -14 -12z"/>
<path d="M2250 3581 c0 -6 4 -13 10 -16 6 -3 7 1 4 9 -7 18 -14 21 -14 7z"/>
<path d="M2910 3556 c0 -2 8 -10 18 -17 15 -13 16 -12 3 4 -13 16 -21 21 -21
13z"/>
<path d="M2239 3533 c-13 -16 -12 -17 4 -4 9 7 17 15 17 17 0 8 -8 3 -21 -13z"/>
<path d="M2315 3540 c3 -5 8 -10 11 -10 2 0 4 5 4 10 0 6 -5 10 -11 10 -5 0
-7 -4 -4 -10z"/>
<path d="M2859 3528 c-5 -18 -6 -38 -1 -34 7 8 12 36 6 36 -2 0 -4 -1 -5 -2z"/>
<path d="M2895 3520 c3 -5 8 -10 11 -10 2 0 4 5 4 10 0 6 -5 10 -11 10 -5 0
-7 -4 -4 -10z"/>
<path d="M2956 3507 c3 -10 9 -15 12 -12 3 3 0 11 -7 18 -10 9 -11 8 -5 -6z"/>
<path d="M2153 3495 c0 -8 4 -12 9 -9 5 3 6 10 3 15 -9 13 -12 11 -12 -6z"/>
<path d="M2896 3481 c-3 -5 2 -15 12 -22 15 -12 16 -12 5 2 -7 9 -10 19 -6 22
3 4 4 7 0 7 -3 0 -8 -4 -11 -9z"/>
<path d="M2975 3471 c-3 -5 -2 -12 3 -15 5 -3 9 1 9 9 0 17 -3 19 -12 6z"/>
<path d="M2990 3436 c0 -2 8 -10 18 -17 15 -13 16 -12 3 4 -13 16 -21 21 -21
13z"/>
<path d="M2073 3413 c0 -9 4 -10 14 -2 7 6 13 12 13 14 0 1 -6 2 -13 2 -8 0
-14 -6 -14 -14z"/>
<path d="M3039 3413 c-13 -16 -12 -17 4 -4 16 13 21 21 13 21 -2 0 -10 -8 -17
-17z"/>
<path d="M2955 3389 c-4 -6 -5 -12 -2 -15 2 -3 7 2 10 11 7 17 1 20 -8 4z"/>
<path d="M3086 3382 c-3 -5 1 -9 9 -9 8 0 12 4 9 9 -3 4 -7 8 -9 8 -2 0 -6 -4
-9 -8z"/>
<path d="M1959 3338 c-4 -12 -5 -57 0 -53 6 6 10 55 4 55 -1 0 -3 -1 -4 -2z"/>
<path d="M1990 3319 c0 -5 5 -7 10 -4 6 3 10 8 10 11 0 2 -4 4 -10 4 -5 0 -10
-5 -10 -11z"/>
<path d="M3095 3320 c3 -5 8 -10 11 -10 2 0 4 5 4 10 0 6 -5 10 -11 10 -5 0
-7 -4 -4 -10z"/>
<path d="M2075 3300 c-3 -5 -1 -10 4 -10 6 0 11 5 11 10 0 6 -2 10 -4 10 -3 0
-8 -4 -11 -10z"/>
<path d="M1883 3258 c-10 -17 -12 -59 -2 -53 4 3 6 13 4 23 -1 9 2 23 8 30 5
6 7 12 4 12 -3 0 -9 -6 -14 -12z"/>
<path d="M3176 3242 c-3 -5 1 -9 9 -9 8 0 12 4 9 9 -3 4 -7 8 -9 8 -2 0 -6 -4
-9 -8z"/>
<path d="M3247 3219 c7 -7 15 -10 18 -7 3 3 -2 9 -12 12 -14 6 -15 5 -6 -5z"/>
<path d="M1833 3175 c0 -8 4 -12 9 -9 5 3 6 10 3 15 -9 13 -12 11 -12 -6z"/>
<path d="M3255 3160 c-3 -5 -1 -10 4 -10 6 0 11 5 11 10 0 6 -2 10 -4 10 -3 0
-8 -4 -11 -10z"/>
<path d="M1753 3093 c0 -9 4 -10 14 -2 7 6 13 12 13 14 0 1 -6 2 -13 2 -8 0
-14 -6 -14 -14z"/>
<path d="M3366 3102 c-3 -5 1 -9 9 -9 8 0 12 4 9 9 -3 4 -7 8 -9 8 -2 0 -6 -4
-9 -8z"/>
<path d="M3335 3080 c3 -5 8 -10 11 -10 2 0 4 5 4 10 0 6 -5 10 -11 10 -5 0
-7 -4 -4 -10z"/>
<path d="M3394 3062 c4 -3 14 -7 22 -8 9 -1 13 0 10 4 -4 3 -14 7 -22 8 -9 1
-13 0 -10 -4z"/>
<path d="M1673 3010 c1 -21 10 -18 13 5 1 8 -2 15 -6 15 -5 0 -8 -9 -7 -20z"/>
<path d="M3450 3021 c0 -6 4 -13 10 -16 6 -3 7 1 4 9 -7 18 -14 21 -14 7z"/>
<path d="M1639 3018 c-4 -12 -5 -57 0 -53 6 6 10 55 4 55 -1 0 -3 -1 -4 -2z"/>
<path d="M1755 2980 c-3 -5 -1 -10 4 -10 6 0 11 5 11 10 0 6 -2 10 -4 10 -3 0
-8 -4 -11 -10z"/>
<path d="M1565 2939 c-3 -4 2 -6 10 -5 21 3 28 13 10 13 -9 0 -18 -4 -20 -8z"/>
<path d="M3475 2939 c-3 -4 2 -6 10 -5 21 3 28 13 10 13 -9 0 -18 -4 -20 -8z"/>
<path d="M1540 2926 c0 -2 8 -10 18 -17 15 -13 16 -12 3 4 -13 16 -21 21 -21
13z"/>
<path d="M3553 2915 c0 -8 4 -12 9 -9 5 3 6 10 3 15 -9 13 -12 11 -12 -6z"/>
<path d="M1530 2901 c0 -6 4 -13 10 -16 6 -3 7 1 4 9 -7 18 -14 21 -14 7z"/>
<path d="M309 2863 c-13 -16 -12 -17 4 -4 9 7 17 15 17 17 0 8 -8 3 -21 -13z"/>
<path d="M1479 2863 c-5 -36 -5 -62 -1 -58 7 7 12 65 6 65 -2 0 -4 -3 -5 -7z"/>
<path d="M1510 2839 c0 -5 5 -7 10 -4 6 3 10 8 10 11 0 2 -4 4 -10 4 -5 0 -10
-5 -10 -11z"/>
<path d="M1595 2820 c-3 -5 -1 -10 4 -10 6 0 11 5 11 10 0 6 -2 10 -4 10 -3 0
-8 -4 -11 -10z"/>
<path d="M1403 2778 c-10 -17 -12 -59 -2 -53 4 3 6 13 4 23 -1 9 2 23 8 30 5
6 7 12 4 12 -3 0 -9 -6 -14 -12z"/>
<path d="M3670 2720 c0 -5 5 -10 11 -10 5 0 7 5 4 10 -3 6 -8 10 -11 10 -2 0
-4 -4 -4 -10z"/>
<path d="M1325 2699 c-3 -4 2 -6 10 -5 21 3 28 13 10 13 -9 0 -18 -4 -20 -8z"/>
<path d="M1300 2686 c0 -2 8 -10 18 -17 15 -13 16 -12 3 4 -13 16 -21 21 -21
13z"/>
<path d="M1370 2680 c0 -5 5 -10 11 -10 5 0 7 5 4 10 -3 6 -8 10 -11 10 -2 0
-4 -4 -4 -10z"/>
<path d="M3794 2676 c1 -8 5 -18 8 -22 4 -3 5 1 4 10 -1 8 -5 18 -8 22 -4 3
-5 -1 -4 -10z"/>
<path d="M3833 2635 c0 -8 4 -12 9 -9 5 3 6 10 3 15 -9 13 -12 11 -12 -6z"/>
<path d="M2553 2613 c0 -9 4 -10 14 -2 7 6 13 12 13 14 0 1 -6 2 -13 2 -8 0
-14 -6 -14 -14z"/>
<path d="M3867 2599 c7 -9 10 -19 6 -22 -3 -4 -1 -7 5 -7 17 0 15 16 -5 31
-16 12 -17 12 -6 -2z"/>
<path d="M1356 2587 c3 -10 9 -15 12 -12 3 3 0 11 -7 18 -10 9 -11 8 -5 -6z"/>
<path d="M2510 2581 c0 -6 4 -13 10 -16 6 -3 7 1 4 9 -7 18 -14 21 -14 7z"/>
<path d="M2559 2573 c-13 -16 -12 -17 4 -4 16 13 21 21 13 21 -2 0 -10 -8 -17
-17z"/>
<path d="M3816 2562 c-2 -4 -1 -14 4 -22 7 -11 9 -9 7 8 -1 24 -3 26 -11 14z"/>
<path d="M3913 2555 c0 -8 4 -12 9 -9 5 3 6 10 3 15 -9 13 -12 11 -12 -6z"/>
<path d="M1159 2543 c-5 -36 -5 -62 -1 -58 7 7 12 65 6 65 -2 0 -4 -3 -5 -7z"/>
<path d="M2570 2536 c7 -7 13 -7 20 0 6 6 3 10 -10 10 -13 0 -16 -4 -10 -10z"/>
<path d="M1190 2519 c0 -5 5 -7 10 -4 6 3 10 8 10 11 0 2 -4 4 -10 4 -5 0 -10
-5 -10 -11z"/>
<path d="M3895 2520 c3 -5 8 -10 11 -10 2 0 4 5 4 10 0 6 -5 10 -11 10 -5 0
-7 -4 -4 -10z"/>
<path d="M2493 2504 c0 -8 3 -12 5 -9 3 3 11 0 19 -7 7 -6 15 -9 17 -7 2 2 -6
12 -18 21 -18 13 -23 14 -23 2z"/>
<path d="M1275 2500 c-3 -5 -1 -10 4 -10 6 0 11 5 11 10 0 6 -2 10 -4 10 -3 0
-8 -4 -11 -10z"/>
<path d="M3945 2500 c-3 -6 1 -7 9 -4 18 7 21 14 7 14 -6 0 -13 -4 -16 -10z"/>
<path d="M2541 2457 c-13 -21 -12 -21 5 -5 10 10 16 20 13 22 -3 3 -11 -5 -18
-17z"/>
<path d="M1130 2440 c0 -5 5 -10 11 -10 5 0 7 5 4 10 -3 6 -8 10 -11 10 -2 0
-4 -4 -4 -10z"/>
<path d="M2510 2445 c0 -5 5 -17 10 -25 5 -8 10 -10 10 -5 0 6 -5 17 -10 25
-5 8 -10 11 -10 5z"/>
<path d="M1075 2420 c3 -5 8 -10 11 -10 2 0 4 5 4 10 0 6 -5 10 -11 10 -5 0
-7 -4 -4 -10z"/>
<path d="M2565 2419 c-4 -6 -5 -12 -2 -15 2 -3 7 2 10 11 7 17 1 20 -8 4z"/>
<path d="M2517 2393 c-12 -12 -7 -22 16 -33 21 -11 22 -11 2 5 -17 14 -18 17
-5 25 8 5 10 10 4 10 -6 0 -14 -3 -17 -7z"/>
<path d="M2550 2378 c0 -4 4 -8 9 -8 6 0 12 4 15 8 3 5 -1 9 -9 9 -8 0 -15 -4
-15 -9z"/>
<path d="M2588 2363 c7 -3 16 -2 19 1 4 3 -2 6 -13 5 -11 0 -14 -3 -6 -6z"/>
<path d="M4016 2361 c-3 -5 2 -15 12 -22 15 -12 16 -12 5 2 -7 9 -10 19 -6 22
3 4 4 7 0 7 -3 0 -8 -4 -11 -9z"/>
<path d="M4115 2350 c2 -27 10 -33 12 -10 1 11 -2 22 -6 24 -4 3 -7 -4 -6 -14z"/>
<path d="M2577 2333 c6 -16 5 -16 -11 -4 -12 10 -20 11 -27 4 -8 -8 -7 -13 2
-18 8 -5 10 -4 5 3 -4 7 -3 12 3 12 5 0 13 -5 16 -10 4 -6 11 -8 16 -5 12 8
12 35 -1 35 -5 0 -6 -8 -3 -17z"/>
<path d="M5080 2340 c-9 -6 -10 -10 -3 -10 6 0 15 5 18 10 8 12 4 12 -15 0z"/>
<path d="M6 2322 c-3 -5 1 -9 9 -9 8 0 12 4 9 9 -3 4 -7 8 -9 8 -2 0 -6 -4 -9
-8z"/>
<path d="M2517 2293 c4 -10 2 -14 -5 -9 -17 10 -26 -14 -11 -29 12 -12 17 -11
33 1 11 8 15 14 9 14 -7 0 -15 -5 -18 -10 -4 -6 -11 -8 -16 -5 -13 9 -11 25 3
23 6 -2 14 5 16 15 2 9 -1 17 -7 17 -6 0 -7 -7 -4 -17z"/>
<path d="M2590 2295 c0 -8 2 -15 4 -15 2 0 6 7 10 15 3 8 1 15 -4 15 -6 0 -10
-7 -10 -15z"/>
<path d="M914 2285 c1 -8 8 -21 16 -28 12 -10 12 -9 2 4 -6 9 -9 18 -6 21 3 3
1 9 -4 12 -6 3 -9 -1 -8 -9z"/>
<path d="M2550 2290 c0 -5 5 -10 10 -10 6 0 10 5 10 10 0 6 -4 10 -10 10 -5 0
-10 -4 -10 -10z"/>
<path d="M4096 2278 c3 -4 11 -5 19 -1 21 7 19 12 -4 10 -11 0 -18 -5 -15 -9z"/>
<path d="M4146 2282 c-2 -4 4 -8 14 -8 10 0 16 4 14 8 -3 4 -9 8 -14 8 -5 0
-11 -4 -14 -8z"/>
<path d="M2556 2255 c-11 -8 -21 -25 -22 -37 -2 -13 0 -17 2 -11 3 7 5 15 4
19 -1 4 11 15 27 25 15 10 24 19 18 19 -5 -1 -19 -7 -29 -15z"/>
<path d="M973 2235 c0 -8 4 -12 9 -9 5 3 6 10 3 15 -9 13 -12 11 -12 -6z"/>
<path d="M2496 2214 c-10 -25 1 -29 14 -5 6 12 7 21 1 21 -5 0 -12 -7 -15 -16z"/>
<path d="M935 2200 c-3 -5 -1 -10 4 -10 6 0 11 5 11 10 0 6 -2 10 -4 10 -3 0
-8 -4 -11 -10z"/>
<path d="M2580 2190 c-6 -11 -7 -20 -3 -20 4 0 -2 -7 -13 -16 -18 -14 -18 -15
4 -4 13 7 21 14 18 17 -3 3 -1 14 5 24 5 11 7 19 5 19 -3 0 -10 -9 -16 -20z"/>
<path d="M859 2173 c-13 -17 -13 -17 6 -3 11 8 22 16 24 17 2 2 0 3 -6 3 -6 0
-17 -8 -24 -17z"/>
<path d="M4233 2167 c0 -8 6 -14 14 -14 9 0 10 4 2 14 -6 7 -12 13 -14 13 -1
0 -2 -6 -2 -13z"/>
<path d="M2585 2140 c-3 -5 -14 -10 -24 -10 -44 0 -45 -52 -1 -55 20 -2 48 31
36 43 -3 3 -6 0 -6 -7 0 -7 -4 -9 -10 -6 -5 3 -7 0 -5 -7 4 -9 -2 -14 -14 -14
-12 0 -19 7 -18 18 1 10 9 18 19 18 9 0 20 5 23 10 4 6 11 8 16 5 5 -4 9 -1 9
4 0 14 -17 14 -25 1z"/>
<path d="M896 2118 c3 -5 10 -6 15 -3 13 9 11 12 -6 12 -8 0 -12 -4 -9 -9z"/>
<path d="M4233 2095 c0 -8 4 -12 9 -9 5 3 6 10 3 15 -9 13 -12 11 -12 -6z"/>
<path d="M2510 2086 c0 -5 8 -18 18 -29 16 -19 16 -20 -1 -14 -11 4 -16 3 -12
-3 3 -6 1 -10 -6 -10 -7 0 -10 -3 -7 -6 4 -3 17 0 30 7 12 7 26 12 31 11 4 -1
7 3 7 9 0 6 -7 9 -15 5 -8 -3 -21 4 -30 17 -8 12 -15 17 -15 13z"/>
<path d="M2591 2067 c-13 -21 -12 -21 5 -5 10 10 16 20 13 22 -3 3 -11 -5 -18
-17z"/>
<path d="M4274 2064 c0 -20 11 -25 11 -6 0 4 3 12 7 18 4 6 1 11 -5 11 -7 0
-13 -11 -13 -23z"/>
<path d="M810 2076 c0 -2 8 -10 18 -17 15 -13 16 -12 3 4 -13 16 -21 21 -21
13z"/>
<path d="M2542 2022 c-8 -6 -2 -9 18 -9 20 0 26 3 18 9 -7 4 -15 8 -18 8 -3 0
-11 -4 -18 -8z"/>
<path d="M2495 2000 c-3 -5 -1 -10 4 -10 6 0 11 5 11 10 0 6 -2 10 -4 10 -3 0
-8 -4 -11 -10z"/>
<path d="M4280 2000 c-9 -6 -10 -10 -3 -10 6 0 15 5 18 10 8 12 4 12 -15 0z"/>
<path d="M2520 1994 c0 -6 7 -19 15 -30 8 -10 14 -14 14 -9 0 6 -6 19 -14 29
-8 11 -15 15 -15 10z"/>
<path d="M2550 1990 c0 -5 5 -10 10 -10 6 0 10 5 10 10 0 6 -4 10 -10 10 -5 0
-10 -4 -10 -10z"/>
<path d="M2590 1985 c0 -8 2 -15 4 -15 2 0 6 7 10 15 3 8 1 15 -4 15 -6 0 -10
-7 -10 -15z"/>
<path d="M2496 1963 c-6 -14 -5 -15 5 -6 7 7 10 15 7 18 -3 3 -9 -2 -12 -12z"/>
<path d="M793 1947 c0 -8 6 -14 14 -14 9 0 10 4 2 14 -6 7 -12 13 -14 13 -1 0
-2 -6 -2 -13z"/>
<path d="M2501 1936 c-8 -10 -9 -16 -1 -21 13 -8 30 3 30 21 0 18 -14 18 -29
0z m19 -6 c0 -5 -5 -10 -11 -10 -5 0 -7 5 -4 10 3 6 8 10 11 10 2 0 4 -4 4
-10z"/>
<path d="M2550 1930 c0 -5 5 -10 10 -10 6 0 10 5 10 10 0 6 -4 10 -10 10 -5 0
-10 -4 -10 -10z"/>
<path d="M1776 1918 c3 -5 10 -6 15 -3 13 9 11 12 -6 12 -8 0 -12 -4 -9 -9z"/>
<path d="M4275 1920 c-3 -5 -1 -10 4 -10 6 0 11 5 11 10 0 6 -2 10 -4 10 -3 0
-8 -4 -11 -10z"/>
<path d="M2520 1900 c-8 -5 -10 -10 -5 -10 6 0 17 5 25 10 8 5 11 10 5 10 -5
0 -17 -5 -25 -10z"/>
<path d="M2580 1900 c8 -5 20 -10 25 -10 6 0 3 5 -5 10 -8 5 -19 10 -25 10 -5
0 -3 -5 5 -10z"/>
<path d="M1776 1878 c3 -5 10 -6 15 -3 13 9 11 12 -6 12 -8 0 -12 -4 -9 -9z"/>
<path d="M2539 1885 c-1 -3 -3 -9 -4 -15 -1 -5 -3 -15 -4 -21 0 -5 -5 -7 -11
-4 -5 3 -10 1 -10 -4 0 -6 4 -11 10 -11 11 0 34 40 23 41 -4 1 3 5 17 9 24 8
24 8 3 9 -13 1 -24 -1 -24 -4z"/>
<path d="M4275 1880 c-3 -5 -1 -10 4 -10 6 0 11 5 11 10 0 6 -2 10 -4 10 -3 0
-8 -4 -11 -10z"/>
<path d="M2590 1871 c0 -7 -4 -9 -10 -6 -6 4 -7 -1 -3 -11 6 -15 7 -15 15 1 6
9 7 19 4 22 -3 4 -6 1 -6 -6z"/>
<path d="M4293 1845 c0 -8 4 -12 9 -9 5 3 6 10 3 15 -9 13 -12 11 -12 -6z"/>
<path d="M1776 1842 c-3 -5 1 -9 9 -9 8 0 12 4 9 9 -3 4 -7 8 -9 8 -2 0 -6 -4
-9 -8z"/>
<path d="M2598 1839 c-2 -7 -18 -13 -34 -14 -19 0 -28 -5 -26 -14 2 -9 -3 -11
-13 -7 -9 3 -13 2 -10 -4 3 -6 1 -10 -6 -10 -7 0 -10 -3 -7 -6 10 -9 49 16 43
27 -4 5 3 9 14 9 12 0 20 -5 19 -12 -2 -6 5 -14 15 -16 9 -2 17 1 17 7 0 6 -8
8 -17 4 -16 -6 -16 -4 1 15 11 12 17 25 14 28 -3 3 -8 0 -10 -7z"/>
<path d="M4253 1835 c0 -8 4 -12 9 -9 5 3 6 10 3 15 -9 13 -12 11 -12 -6z"/>
<path d="M2544 1782 c-6 -4 -4 -13 8 -24 20 -20 25 -9 6 11 -11 11 -8 12 12 6
19 -5 21 -4 10 4 -18 13 -22 13 -36 3z"/>
<path d="M3307 1779 c7 -7 15 -10 18 -7 3 3 -2 9 -12 12 -14 6 -15 5 -6 -5z"/>
<path d="M3350 1779 c0 -5 5 -7 10 -4 6 3 10 8 10 11 0 2 -4 4 -10 4 -5 0 -10
-5 -10 -11z"/>
<path d="M2495 1760 c3 -5 8 -10 11 -10 2 0 4 5 4 10 0 6 -5 10 -11 10 -5 0
-7 -4 -4 -10z"/>
<path d="M2588 1748 c-15 -26 -53 -35 -44 -11 3 8 1 11 -4 8 -6 -3 -10 -1 -10
6 0 7 -3 10 -6 6 -11 -11 14 -41 35 -42 15 -1 27 7 37 27 17 33 10 38 -8 6z"/>
<path d="M860 1746 c0 -2 8 -10 18 -17 15 -13 16 -12 3 4 -13 16 -21 21 -21
13z"/>
<path d="M2496 1723 c-6 -14 -5 -15 5 -6 7 7 10 15 7 18 -3 3 -9 -2 -12 -12z"/>
<path d="M3330 1719 c0 -5 5 -7 10 -4 6 3 10 8 10 11 0 2 -4 4 -10 4 -5 0 -10
-5 -10 -11z"/>
<path d="M4206 1718 c3 -5 10 -6 15 -3 13 9 11 12 -6 12 -8 0 -12 -4 -9 -9z"/>
<path d="M2589 1703 c-13 -16 -12 -17 4 -4 9 7 17 15 17 17 0 8 -8 3 -21 -13z"/>
<path d="M2501 1696 c-9 -10 -9 -16 -1 -21 13 -8 42 14 34 26 -8 13 -20 11
-33 -5z m24 -6 c-3 -5 -11 -10 -16 -10 -6 0 -7 5 -4 10 3 6 11 10 16 10 6 0 7
-4 4 -10z"/>
<path d="M2550 1690 c0 -5 5 -10 10 -10 6 0 10 5 10 10 0 6 -4 10 -10 10 -5 0
-10 -4 -10 -10z"/>
<path d="M870 1676 c0 -2 8 -10 18 -17 15 -13 16 -12 3 4 -13 16 -21 21 -21
13z"/>
<path d="M2553 1650 c14 -11 29 -20 34 -20 10 1 -39 39 -51 40 -5 0 3 -9 17
-20z"/>
<path d="M1756 1638 c3 -5 10 -6 15 -3 13 9 11 12 -6 12 -8 0 -12 -4 -9 -9z"/>
<path d="M2520 1642 c17 -5 21 -10 12 -16 -6 -4 -17 -4 -24 0 -6 4 -8 3 -5 -3
3 -5 23 -10 44 -10 28 -1 32 1 15 6 -13 3 -22 11 -20 16 2 6 -8 11 -22 12
l-25 2 25 -7z"/>
<path d="M1735 1620 c-3 -5 -1 -10 4 -10 6 0 11 5 11 10 0 6 -2 10 -4 10 -3 0
-8 -4 -11 -10z"/>
<path d="M2497 1590 c3 -11 9 -20 15 -20 5 0 4 9 -2 20 -6 11 -12 20 -14 20
-2 0 -2 -9 1 -20z"/>
<path d="M2590 1600 c0 -5 5 -10 10 -10 6 0 10 5 10 10 0 6 -4 10 -10 10 -5 0
-10 -4 -10 -10z"/>
<path d="M2534 1582 c2 -22 31 -51 51 -52 6 0 -3 9 -18 19 -16 10 -28 21 -27
25 1 4 -1 12 -4 19 -2 6 -4 2 -2 -11z"/>
<path d="M2565 1585 c11 -9 19 -19 17 -23 -2 -4 4 -8 12 -10 9 -2 16 1 16 7 0
6 -7 7 -17 4 -10 -4 -14 -2 -9 5 4 6 -3 16 -16 22 -22 11 -22 11 -3 -5z"/>
<path d="M5075 1589 c-4 -6 -5 -12 -2 -15 2 -3 7 2 10 11 7 17 1 20 -8 4z"/>
<path d="M1080 1586 c0 -2 8 -10 18 -17 15 -13 16 -12 3 4 -13 16 -21 21 -21
13z"/>
<path d="M975 1571 c-3 -5 -2 -12 3 -15 5 -3 9 1 9 9 0 17 -3 19 -12 6z"/>
<path d="M4135 1560 c3 -5 8 -10 11 -10 2 0 4 5 4 10 0 6 -5 10 -11 10 -5 0
-7 -4 -4 -10z"/>
<path d="M2494 1539 c-3 -6 -1 -16 6 -22 10 -9 12 -8 6 7 -5 16 -2 17 21 12
21 -5 24 -4 13 4 -20 13 -37 13 -46 -1z"/>
<path d="M4075 1541 c-3 -5 -2 -12 3 -15 5 -3 9 1 9 9 0 17 -3 19 -12 6z"/>
<path d="M5075 1540 c-3 -5 -1 -10 4 -10 6 0 11 5 11 10 0 6 -2 10 -4 10 -3 0
-8 -4 -11 -10z"/>
<path d="M35 1520 c-3 -5 -1 -10 4 -10 6 0 11 5 11 10 0 6 -2 10 -4 10 -3 0
-8 -4 -11 -10z"/>
<path d="M2593 1515 c-3 -9 -3 -18 -1 -21 3 -3 8 4 11 16 6 23 -1 27 -10 5z"/>
<path d="M3513 1515 c0 -8 4 -12 9 -9 5 3 6 10 3 15 -9 13 -12 11 -12 -6z"/>
<path d="M2516 1505 c-3 -8 -1 -15 4 -15 6 0 10 7 10 15 0 8 -2 15 -4 15 -2 0
-6 -7 -10 -15z"/>
<path d="M2550 1510 c0 -5 5 -10 10 -10 6 0 10 5 10 10 0 6 -4 10 -10 10 -5 0
-10 -4 -10 -10z"/>
<path d="M3475 1509 c-4 -6 -5 -12 -2 -15 2 -3 7 2 10 11 7 17 1 20 -8 4z"/>
<path d="M1615 1501 c-3 -5 -2 -12 3 -15 5 -3 9 1 9 9 0 17 -3 19 -12 6z"/>
<path d="M2494 1469 c0 -10 4 -19 8 -19 4 0 8 6 8 14 0 8 -4 17 -8 20 -4 2 -8
-4 -8 -15z"/>
<path d="M2534 1475 c-3 -8 -3 -18 0 -24 4 -5 -2 -12 -11 -15 -15 -4 -15 -5 1
-3 14 1 20 10 20 30 2 30 -2 34 -10 12z"/>
<path d="M2559 1472 c-13 -16 -12 -16 4 -2 17 13 19 12 15 -10 -2 -21 2 -25
22 -27 20 -1 21 0 4 3 -15 4 -20 11 -17 23 7 26 -12 34 -28 13z"/>
<path d="M4006 1482 c-3 -5 1 -9 9 -9 8 0 12 4 9 9 -3 4 -7 8 -9 8 -2 0 -6 -4
-9 -8z"/>
<path d="M1550 1466 c0 -2 7 -7 16 -10 8 -3 12 -2 9 4 -6 10 -25 14 -25 6z"/>
<path d="M5053 1451 c0 -11 5 -18 9 -15 4 3 5 11 1 19 -7 21 -12 19 -10 -4z"/>
<path d="M2550 1420 c0 -5 10 -14 23 -20 20 -10 20 -10 5 3 -10 8 -15 17 -11
20 3 4 1 7 -5 7 -7 0 -12 -4 -12 -10z"/>
<path d="M3719 1413 c-13 -16 -12 -17 4 -4 16 13 21 21 13 21 -2 0 -10 -8 -17
-17z"/>
<path d="M1354 1402 c4 -3 14 -7 22 -8 9 -1 13 0 10 4 -4 3 -14 7 -22 8 -9 1
-13 0 -10 -4z"/>
<path d="M2599 1388 c-6 -13 -8 -20 -4 -16 4 4 14 0 22 -10 13 -15 13 -15 3 6
-6 12 -8 27 -5 32 3 6 4 10 1 10 -3 0 -11 -10 -17 -22z"/>
<path d="M3794 1402 c4 -3 14 -7 22 -8 9 -1 13 0 10 4 -4 3 -14 7 -22 8 -9 1
-13 0 -10 -4z"/>
<path d="M2516 1383 c-6 -14 -5 -15 5 -6 7 7 10 15 7 18 -3 3 -9 -2 -12 -12z"/>
<path d="M5013 1385 c0 -8 4 -12 9 -9 5 3 6 10 3 15 -9 13 -12 11 -12 -6z"/>
<path d="M2544 1374 c-18 -14 -18 -15 4 -4 12 6 22 13 22 15 0 8 -5 6 -26 -11z"/>
<path d="M82 1364 c10 -10 20 -16 22 -13 3 3 -5 11 -17 18 -21 13 -21 12 -5
-5z"/>
<path d="M2517 1340 c3 -11 9 -22 13 -25 5 -3 6 4 3 15 -3 11 -9 22 -13 25 -5
3 -6 -4 -3 -15z"/>
<path d="M2557 1349 c7 -7 15 -10 18 -7 3 3 -2 9 -12 12 -14 6 -15 5 -6 -5z"/>
<path d="M2470 1320 c0 -5 5 -10 10 -10 6 0 10 5 10 10 0 6 -4 10 -10 10 -5 0
-10 -4 -10 -10z"/>
<path d="M2555 1319 c-3 -4 2 -6 10 -5 21 3 28 13 10 13 -9 0 -18 -4 -20 -8z"/>
<path d="M2596 1313 c-6 -14 -5 -15 5 -6 7 7 10 15 7 18 -3 3 -9 -2 -12 -12z"/>
<path d="M130 1281 c0 -6 4 -13 10 -16 6 -3 7 1 4 9 -7 18 -14 21 -14 7z"/>
<path d="M2586 1277 c3 -10 9 -15 12 -12 3 3 0 11 -7 18 -10 9 -11 8 -5 -6z"/>
<path d="M2612 1264 c-1 -13 0 -24 2 -24 7 0 14 40 7 44 -4 3 -8 -6 -9 -20z"/>
<path d="M2486 1262 c-3 -5 1 -9 9 -9 8 0 12 4 9 9 -3 4 -7 8 -9 8 -2 0 -6 -4
-9 -8z"/>
<path d="M2500 1232 c0 -6 5 -14 10 -17 6 -4 8 -10 6 -14 -3 -4 1 -8 9 -8 12
0 12 4 -2 21 -10 12 -19 23 -20 25 -2 2 -3 -1 -3 -7z"/>
<path d="M2530 1236 c0 -2 8 -10 18 -17 15 -13 16 -12 3 4 -13 16 -21 21 -21
13z"/>
<path d="M2610 1221 c0 -6 4 -13 10 -16 6 -3 7 1 4 9 -7 18 -14 21 -14 7z"/>
<path d="M126 1202 c-3 -5 1 -9 9 -9 8 0 12 4 9 9 -3 4 -7 8 -9 8 -2 0 -6 -4
-9 -8z"/>
<path d="M2460 1206 c0 -2 9 -6 20 -9 11 -3 18 -1 14 4 -5 9 -34 13 -34 5z"/>
<path d="M2656 1193 c-6 -14 -5 -15 5 -6 7 7 10 15 7 18 -3 3 -9 -2 -12 -12z"/>
<path d="M4930 1200 c0 -5 5 -10 11 -10 5 0 7 5 4 10 -3 6 -8 10 -11 10 -2 0
-4 -4 -4 -10z"/>
<path d="M2420 1160 c8 -5 20 -10 25 -10 6 0 3 5 -5 10 -8 5 -19 10 -25 10 -5
0 -3 -5 5 -10z"/>
<path d="M2597 1148 c19 -21 31 -25 14 -5 -6 8 -9 16 -6 19 3 2 -2 5 -10 5
-13 0 -13 -3 2 -19z"/>
<path d="M2490 1156 c0 -2 8 -10 18 -17 15 -13 16 -12 3 4 -13 16 -21 21 -21
13z"/>
<path d="M2545 1140 c-3 -6 1 -7 9 -4 18 7 21 14 7 14 -6 0 -13 -4 -16 -10z"/>
<path d="M2640 1140 c-8 -5 0 -7 18 -7 17 1 29 4 26 6 -8 9 -31 9 -44 1z"/>
<path d="M4955 1140 c3 -5 8 -10 11 -10 2 0 4 5 4 10 0 6 -5 10 -11 10 -5 0
-7 -4 -4 -10z"/>
<path d="M2396 1113 c-6 -14 -5 -15 5 -6 7 7 10 15 7 18 -3 3 -9 -2 -12 -12z"/>
<path d="M4867 1119 c7 -7 15 -10 18 -7 3 3 -2 9 -12 12 -14 6 -15 5 -6 -5z"/>
<path d="M2530 1116 c0 -2 8 -10 18 -17 15 -13 16 -12 3 4 -13 16 -21 21 -21
13z"/>
<path d="M2577 1113 c-10 -9 -9 -23 1 -23 5 0 9 7 9 15 0 17 -1 18 -10 8z"/>
<path d="M2676 1107 c3 -10 9 -15 12 -12 3 3 0 11 -7 18 -10 9 -11 8 -5 -6z"/>
<path d="M2653 1095 c0 -8 4 -12 9 -9 5 3 6 10 3 15 -9 13 -12 11 -12 -6z"/>
<path d="M2474 1075 c0 -13 3 -22 7 -19 8 4 6 30 -2 38 -3 3 -5 -5 -5 -19z"/>
<path d="M206 1078 c3 -5 10 -6 15 -3 13 9 11 12 -6 12 -8 0 -12 -4 -9 -9z"/>
<path d="M2532 1086 c11 -13 -21 -68 -34 -60 -6 4 -8 3 -5 -3 8 -13 -48 -93
-65 -93 -6 0 -9 -3 -5 -6 9 -9 -25 -44 -36 -37 -6 3 -7 2 -4 -3 9 -15 -81 -97
-99 -90 -9 3 -12 1 -9 -4 3 -6 -14 -29 -39 -51 -38 -35 -43 -43 -31 -55 16
-16 85 -128 85 -139 0 -3 6 -13 13 -20 40 -46 79 -110 70 -118 -3 -4 -1 -7 6
-7 7 0 9 -5 6 -10 -4 -6 -12 -7 -18 -4 -7 4 -8 3 -4 -2 5 -5 12 -9 17 -9 9 0
60 -67 73 -95 18 -37 84 -134 95 -138 6 -2 21 13 33 32 11 20 25 36 30 36 5 0
8 3 7 8 -3 14 14 42 23 36 5 -3 6 3 2 12 -4 11 -3 15 5 10 6 -3 14 -1 18 5 4
8 3 9 -4 5 -7 -4 -12 -5 -12 -3 0 11 73 112 80 112 5 0 12 4 17 9 4 5 3 6 -4
2 -19 -10 -25 11 -7 28 8 9 12 16 9 16 -8 0 43 71 59 82 6 4 7 8 2 8 -5 0 -3
7 4 15 7 8 23 34 36 58 12 23 28 41 33 39 6 -1 10 1 10 5 -1 5 -1 15 0 23 1
13 2 13 11 0 8 -12 10 -12 10 -1 0 13 -19 32 -155 156 -45 42 -64 66 -61 78 4
15 2 16 -10 6 -11 -9 -14 -8 -14 5 0 9 -4 16 -10 16 -5 0 -22 19 -37 43 -16
23 -35 47 -43 54 -8 7 -12 13 -7 14 24 5 34 4 47 -5 13 -9 13 -9 2 6 -7 9 -21
15 -30 14 -9 -2 -28 4 -42 12 -14 9 -22 12 -18 8z"/>
<path d="M4850 1079 c0 -5 5 -7 10 -4 6 3 10 8 10 11 0 2 -4 4 -10 4 -5 0 -10
-5 -10 -11z"/>
<path d="M2675 1070 c-4 -6 -10 -8 -14 -6 -4 3 -8 -1 -8 -9 0 -13 4 -12 19 2
18 16 22 23 14 23 -3 0 -8 -5 -11 -10z"/>
<path d="M2390 1061 c0 -6 9 -8 20 -6 11 2 24 -3 30 -13 5 -9 10 -12 10 -5 0
6 -6 15 -12 20 -20 12 -48 14 -48 4z"/>
<path d="M256 1042 c-3 -4 4 -9 15 -9 23 -2 25 3 4 10 -8 4 -16 3 -19 -1z"/>
<path d="M2363 1035 c-3 -9 -3 -18 -1 -21 3 -3 8 4 11 16 6 23 -1 27 -10 5z"/>
<path d="M2683 1038 c-13 -22 -11 -85 3 -85 9 0 10 4 5 11 -10 13 -9 56 2 74
5 6 6 12 3 12 -3 0 -8 -6 -13 -12z"/>
<path d="M2422 1024 c10 -10 20 -16 22 -13 3 3 -5 11 -17 18 -21 13 -21 12 -5
-5z"/>
<path d="M2720 1016 c0 -2 7 -7 16 -10 8 -3 12 -2 9 4 -6 10 -25 14 -25 6z"/>
<path d="M2630 998 c0 -4 4 -8 9 -8 6 0 12 4 15 8 3 5 -1 9 -9 9 -8 0 -15 -4
-15 -9z"/>
<path d="M2434 991 c4 -6 3 -18 -3 -25 -8 -9 -7 -13 2 -13 16 0 20 34 5 43 -7
4 -8 2 -4 -5z"/>
<path d="M2770 989 c0 -5 -4 -8 -8 -5 -5 3 -9 -1 -9 -9 0 -18 24 -28 33 -13 5
7 2 8 -6 3 -9 -5 -10 -2 -5 14 3 11 4 21 1 21 -3 0 -6 -5 -6 -11z"/>
<path d="M336 978 c3 -5 10 -6 15 -3 13 9 11 12 -6 12 -8 0 -12 -4 -9 -9z"/>
<path d="M2314 975 c-4 -8 -11 -12 -17 -8 -6 3 -7 1 -3 -5 10 -16 14 -15 26 8
6 11 8 20 5 20 -3 0 -8 -7 -11 -15z"/>
<path d="M2796 977 c3 -10 9 -15 12 -12 3 3 0 11 -7 18 -10 9 -11 8 -5 -6z"/>
<path d="M4747 979 c7 -7 15 -10 18 -7 3 3 -2 9 -12 12 -14 6 -15 5 -6 -5z"/>
<path d="M2355 971 c-6 -11 13 -26 22 -17 4 3 1 6 -6 6 -7 0 -9 5 -6 10 3 6 4
10 1 10 -3 0 -7 -4 -11 -9z"/>
<path d="M2270 951 c13 -10 13 -12 0 -22 -13 -9 -13 -10 0 -6 8 2 15 10 15 17
0 7 -7 15 -15 17 -13 4 -13 3 0 -6z"/>
<path d="M2780 940 c-9 -6 -10 -10 -3 -10 6 0 15 5 18 10 8 12 4 12 -15 0z"/>
<path d="M2810 940 c0 -5 5 -10 10 -10 6 0 10 5 10 10 0 6 -4 10 -10 10 -5 0
-10 -4 -10 -10z"/>
<path d="M2295 919 c-6 -8 -4 -10 5 -4 10 6 12 4 6 -11 -6 -15 -5 -17 5 -6 9
9 10 15 2 23 -8 8 -13 7 -18 -2z"/>
<path d="M2718 923 c7 -3 16 -2 19 1 4 3 -2 6 -13 5 -11 0 -14 -3 -6 -6z"/>
<path d="M2835 910 c3 -5 8 -10 11 -10 2 0 4 5 4 10 0 6 -5 10 -11 10 -5 0 -7
-4 -4 -10z"/>
<path d="M2255 900 c3 -5 8 -10 11 -10 2 0 4 5 4 10 0 6 -5 10 -11 10 -5 0 -7
-4 -4 -10z"/>
<path d="M2777 893 c-3 -5 8 -8 23 -8 15 0 26 3 23 8 -2 4 -13 7 -23 7 -10 0
-21 -3 -23 -7z"/>
<path d="M2861 896 c2 -2 15 -9 29 -15 24 -11 24 -11 6 3 -16 13 -49 24 -35
12z"/>
<path d="M2215 880 c-4 -6 1 -7 11 -3 13 5 15 3 9 -7 -5 -9 -4 -11 3 -6 7 4
12 11 12 17 0 12 -27 12 -35 -1z"/>
<path d="M2750 885 c0 -5 5 -17 10 -25 5 -8 10 -10 10 -5 0 6 -5 17 -10 25 -5
8 -10 11 -10 5z"/>
<path d="M4675 879 c-3 -4 2 -6 10 -5 21 3 28 13 10 13 -9 0 -18 -4 -20 -8z"/>
<path d="M2171 864 c0 -11 3 -14 6 -6 3 7 2 16 -1 19 -3 4 -6 -2 -5 -13z"/>
<path d="M2341 864 c0 -11 3 -14 6 -6 3 7 2 16 -1 19 -3 4 -6 -2 -5 -13z"/>
<path d="M2835 860 c3 -5 8 -10 11 -10 2 0 4 5 4 10 0 6 -5 10 -11 10 -5 0 -7
-4 -4 -10z"/>
<path d="M2940 860 c0 -5 5 -10 11 -10 5 0 7 5 4 10 -3 6 -8 10 -11 10 -2 0
-4 -4 -4 -10z"/>
<path d="M2915 832 c1 -15 -3 -30 -9 -34 -6 -4 -1 -6 11 -5 14 1 19 5 14 12
-5 5 -7 18 -6 27 2 10 0 20 -4 23 -4 2 -7 -8 -6 -23z"/>
<path d="M2119 843 c-1 -5 -1 -12 0 -17 1 -4 -3 -13 -8 -20 -7 -8 -5 -12 8
-12 15 0 17 5 11 22 -5 12 -6 25 -3 28 4 3 3 6 0 6 -4 0 -8 -3 -8 -7z"/>
<path d="M2195 833 c1 -10 -1 -23 -6 -28 -5 -7 0 -11 14 -12 12 0 17 1 10 4
-6 2 -9 15 -7 29 2 13 0 24 -5 24 -5 0 -8 -8 -6 -17z"/>
<path d="M2235 820 c-3 -5 -1 -10 4 -10 6 0 11 5 11 10 0 6 -2 10 -4 10 -3 0
-8 -4 -11 -10z"/>
<path d="M2306 818 c3 -5 10 -6 15 -3 13 9 11 12 -6 12 -8 0 -12 -4 -9 -9z"/>
<path d="M2961 812 c-7 -14 -6 -19 4 -19 7 0 11 7 7 15 -4 11 -1 13 8 7 9 -5
11 -4 6 3 -10 16 -14 15 -25 -6z"/>
<path d="M587 799 c7 -7 15 -10 18 -7 3 3 -2 9 -12 12 -14 6 -15 5 -6 -5z"/>
<path d="M2865 799 c4 -5 2 -16 -5 -24 -8 -9 -8 -15 0 -20 6 -4 9 -1 8 7 -2 7
2 12 8 11 16 -3 13 25 -3 31 -8 3 -11 1 -8 -5z"/>
<path d="M4495 801 c-3 -5 -2 -12 3 -15 5 -3 9 1 9 9 0 17 -3 19 -12 6z"/>
<path d="M634 776 c1 -8 5 -18 8 -22 4 -3 5 1 4 10 -1 8 -5 18 -8 22 -4 3 -5
-1 -4 -10z"/>
<path d="M2054 778 c-4 -5 -3 -12 0 -15 3 -4 6 -1 6 6 0 7 4 10 9 6 5 -3 12
-2 15 3 3 5 -2 9 -10 9 -8 0 -17 -4 -20 -9z"/>
<path d="M3040 785 c0 -2 6 -8 13 -14 10 -8 14 -7 14 2 0 8 -6 14 -14 14 -7 0
-13 -1 -13 -2z"/>
<path d="M4534 775 c3 -23 12 -26 13 -5 1 11 -2 20 -7 20 -4 0 -7 -7 -6 -15z"/>
<path d="M575 760 c3 -5 8 -10 11 -10 2 0 4 5 4 10 0 6 -5 10 -11 10 -5 0 -7
-4 -4 -10z"/>
<path d="M2113 747 c-1 -11 -1 -18 0 -16 2 2 8 11 15 20 9 12 9 16 -1 16 -7 0
-14 -9 -14 -20z"/>
<path d="M2209 743 c-13 -16 -12 -17 4 -4 9 7 17 15 17 17 0 8 -8 3 -21 -13z"/>
<path d="M2894 749 c-3 -6 -2 -15 3 -20 5 -5 9 -1 9 11 0 23 -2 24 -12 9z"/>
<path d="M2150 746 c0 -2 7 -7 16 -10 8 -3 12 -2 9 4 -6 10 -25 14 -25 6z"/>
<path d="M3039 748 c-5 -18 -6 -38 -1 -34 7 8 12 36 6 36 -2 0 -4 -1 -5 -2z"/>
<path d="M2074 726 c1 -8 5 -18 8 -22 4 -3 5 1 4 10 -1 8 -5 18 -8 22 -4 3 -5
-1 -4 -10z"/>
<path d="M4515 729 c-4 -6 -5 -12 -2 -15 2 -3 7 2 10 11 7 17 1 20 -8 4z"/>
<path d="M3173 715 c0 -8 4 -12 9 -9 5 3 6 10 3 15 -9 13 -12 11 -12 -6z"/>
<path d="M4400 720 c-9 -6 -10 -10 -3 -10 6 0 15 5 18 10 8 12 4 12 -15 0z"/>
<path d="M4440 720 c-12 -7 -10 -9 7 -7 12 0 19 5 17 9 -6 10 -6 10 -24 -2z"/>
<path d="M1895 711 c-3 -5 -2 -12 3 -15 5 -3 9 1 9 9 0 17 -3 19 -12 6z"/>
<path d="M2115 711 c-3 -5 -2 -12 3 -15 5 -3 9 1 9 9 0 17 -3 19 -12 6z"/>
<path d="M2995 711 c-3 -5 -2 -12 3 -15 5 -3 9 1 9 9 0 17 -3 19 -12 6z"/>
<path d="M3133 705 c0 -8 4 -12 9 -9 5 3 6 10 3 15 -9 13 -12 11 -12 -6z"/>
<path d="M759 693 c-12 -16 -12 -17 2 -6 9 7 20 9 24 5 5 -4 5 -1 1 6 -9 16
-11 15 -27 -5z"/>
<path d="M3195 701 c-3 -5 -2 -12 3 -15 5 -3 9 1 9 9 0 17 -3 19 -12 6z"/>
<path d="M2015 680 c-3 -5 -1 -10 4 -10 6 0 11 5 11 10 0 6 -2 10 -4 10 -3 0
-8 -4 -11 -10z"/>
<path d="M2930 679 c0 -5 5 -7 10 -4 6 3 10 8 10 11 0 2 -4 4 -10 4 -5 0 -10
-5 -10 -11z"/>
<path d="M3190 662 c0 -5 7 -9 15 -9 8 0 12 4 9 9 -3 4 -9 8 -15 8 -5 0 -9 -4
-9 -8z"/>
<path d="M3235 660 c3 -5 8 -10 11 -10 2 0 4 5 4 10 0 6 -5 10 -11 10 -5 0 -7
-4 -4 -10z"/>
<path d="M4476 662 c-3 -5 1 -9 9 -9 8 0 12 4 9 9 -3 4 -7 8 -9 8 -2 0 -6 -4
-9 -8z"/>
<path d="M1793 645 c0 -8 4 -12 9 -9 5 3 6 10 3 15 -9 13 -12 11 -12 -6z"/>
<path d="M2116 647 c3 -10 9 -15 12 -12 3 3 0 11 -7 18 -10 9 -11 8 -5 -6z"/>
<path d="M775 639 c-3 -4 2 -6 10 -5 21 3 28 13 10 13 -9 0 -18 -4 -20 -8z"/>
<path d="M910 638 c0 -4 4 -8 9 -8 6 0 12 4 15 8 3 5 -1 9 -9 9 -8 0 -15 -4
-15 -9z"/>
<path d="M1874 642 c4 -3 14 -7 22 -8 9 -1 13 0 10 4 -4 3 -14 7 -22 8 -9 1
-13 0 -10 -4z"/>
<path d="M3354 628 l-19 -23 23 19 c21 18 27 26 19 26 -2 0 -12 -10 -23 -22z"/>
<path d="M975 629 c-4 -6 -5 -12 -2 -15 2 -3 7 2 10 11 7 17 1 20 -8 4z"/>
<path d="M1690 637 c0 -2 6 -10 14 -16 11 -9 16 -9 22 1 4 7 4 10 -1 6 -4 -4
-14 -3 -22 3 -7 6 -13 9 -13 6z"/>
<path d="M3419 638 c-6 -20 -6 -39 0 -42 4 -3 7 6 7 20 0 20 -4 32 -7 22z"/>
<path d="M4230 619 c0 -5 5 -7 10 -4 6 3 10 8 10 11 0 2 -4 4 -10 4 -5 0 -10
-5 -10 -11z"/>
<path d="M4275 621 c-3 -5 -2 -12 3 -15 5 -3 9 1 9 9 0 17 -3 19 -12 6z"/>
<path d="M1773 605 c0 -8 4 -12 9 -9 5 3 6 10 3 15 -9 13 -12 11 -12 -6z"/>
<path d="M3373 605 c0 -8 4 -12 9 -9 5 3 6 10 3 15 -9 13 -12 11 -12 -6z"/>
<path d="M2896 602 c-3 -4 4 -9 15 -9 23 -2 25 3 4 10 -8 4 -16 3 -19 -1z"/>
<path d="M3290 605 c0 -7 30 -13 34 -7 3 4 -4 9 -15 9 -10 1 -19 0 -19 -2z"/>
<path d="M3540 606 c0 -2 8 -10 18 -17 15 -13 16 -12 3 4 -13 16 -21 21 -21
13z"/>
<path d="M3956 602 c-3 -5 1 -9 9 -9 8 0 12 4 9 9 -3 4 -7 8 -9 8 -2 0 -6 -4
-9 -8z"/>
<path d="M1164 578 l-19 -23 23 19 c12 11 22 21 22 23 0 8 -8 2 -26 -19z"/>
<path d="M1455 590 c-4 -6 -11 -7 -17 -4 -7 4 -8 2 -4 -5 6 -9 11 -9 22 0 14
11 18 19 10 19 -3 0 -8 -5 -11 -10z"/>
<path d="M3609 583 c-13 -16 -12 -17 4 -4 16 13 21 21 13 21 -2 0 -10 -8 -17
-17z"/>
<path d="M3895 590 c-4 -6 -10 -8 -14 -6 -4 3 -8 -1 -8 -9 0 -13 4 -12 19 2
18 16 22 23 14 23 -3 0 -8 -5 -11 -10z"/>
<path d="M1550 586 c0 -2 7 -7 16 -10 8 -3 12 -2 9 4 -6 10 -25 14 -25 6z"/>
<path d="M2870 580 c0 -5 5 -10 11 -10 5 0 7 5 4 10 -3 6 -8 10 -11 10 -2 0
-4 -4 -4 -10z"/>
<path d="M3470 579 c0 -5 5 -7 10 -4 6 3 10 8 10 11 0 2 -4 4 -10 4 -5 0 -10
-5 -10 -11z"/>
<path d="M3505 580 c-3 -6 1 -7 9 -4 18 7 21 14 7 14 -6 0 -13 -4 -16 -10z"/>
<path d="M3635 581 c-3 -5 -2 -12 3 -15 5 -3 9 1 9 9 0 17 -3 19 -12 6z"/>
<path d="M1233 565 c0 -8 4 -12 9 -9 5 3 6 10 3 15 -9 13 -12 11 -12 -6z"/>
<path d="M3935 571 c-3 -5 -2 -12 3 -15 5 -3 9 1 9 9 0 17 -3 19 -12 6z"/>
<path d="M1420 566 c0 -2 8 -10 18 -17 15 -13 16 -12 3 4 -13 16 -21 21 -21
13z"/>
<path d="M2255 560 c3 -5 8 -10 11 -10 2 0 4 5 4 10 0 6 -5 10 -11 10 -5 0 -7
-4 -4 -10z"/>
<path d="M3591 553 c7 -12 15 -20 18 -17 3 2 -3 12 -13 22 -17 16 -18 16 -5
-5z"/>
<path d="M3800 560 c-9 -6 -10 -10 -3 -10 6 0 15 5 18 10 8 12 4 12 -15 0z"/>
<path d="M3840 560 c-9 -6 -10 -10 -3 -10 6 0 15 5 18 10 8 12 4 12 -15 0z"/>
<path d="M1189 543 c-13 -16 -12 -17 4 -4 16 13 21 21 13 21 -2 0 -10 -8 -17
-17z"/>
<path d="M3696 538 c3 -5 10 -6 15 -3 13 9 11 12 -6 12 -8 0 -12 -4 -9 -9z"/>
<path d="M4210 540 c0 -5 5 -10 11 -10 5 0 7 5 4 10 -3 6 -8 10 -11 10 -2 0
-4 -4 -4 -10z"/>
<path d="M1256 518 c3 -5 10 -6 15 -3 13 9 11 12 -6 12 -8 0 -12 -4 -9 -9z"/>
<path d="M1336 518 c3 -5 10 -6 15 -3 13 9 11 12 -6 12 -8 0 -12 -4 -9 -9z"/>
<path d="M1416 518 c3 -4 11 -5 19 -1 21 7 19 12 -4 10 -11 0 -18 -5 -15 -9z"/>
<path d="M3653 523 c4 -3 1 -13 -6 -22 -11 -14 -10 -14 5 -2 16 12 16 31 1 31
-4 0 -3 -3 0 -7z"/>
<path d="M3826 521 c-3 -4 6 -7 19 -7 14 0 22 2 19 5 -8 8 -34 10 -38 2z"/>
<path d="M3993 515 c0 -8 4 -12 9 -9 5 3 6 10 3 15 -9 13 -12 11 -12 -6z"/>
<path d="M4153 495 c0 -8 4 -12 9 -9 5 3 6 10 3 15 -9 13 -12 11 -12 -6z"/>
<path d="M2300 426 c0 -2 8 -10 18 -17 15 -13 16 -12 3 4 -13 16 -21 21 -21
13z"/>
<path d="M2774 416 c1 -8 5 -18 8 -22 4 -3 5 1 4 10 -1 8 -5 18 -8 22 -4 3 -5
-1 -4 -10z"/>
<path d="M2370 325 c0 -7 30 -13 34 -7 3 4 -4 9 -15 9 -10 1 -19 0 -19 -2z"/>
<path d="M2690 320 c0 -5 5 -10 11 -10 5 0 7 5 4 10 -3 6 -8 10 -11 10 -2 0
-4 -4 -4 -10z"/>
<path d="M2416 282 c-3 -5 1 -9 9 -9 8 0 12 4 9 9 -3 4 -7 8 -9 8 -2 0 -6 -4
-9 -8z"/>
</g>
</svg>
